<?xml version="1.0" encoding="UTF-8" standalone="no"?>
<!-- Created with Inkscape (http://www.inkscape.org/) -->

<svg
   xmlns:dc="http://purl.org/dc/elements/1.1/"
   xmlns:cc="http://creativecommons.org/ns#"
   xmlns:rdf="http://www.w3.org/1999/02/22-rdf-syntax-ns#"
   xmlns:svg="http://www.w3.org/2000/svg"
   xmlns="http://www.w3.org/2000/svg"
   xmlns:sodipodi="http://sodipodi.sourceforge.net/DTD/sodipodi-0.dtd"
   xmlns:inkscape="http://www.inkscape.org/namespaces/inkscape"
   width="1621.824"
   height="427.4996"
   viewBox="0 0 1621.8241 427.4996"
   id="svg2"
   version="1.1"
   inkscape:version="0.91 r13725"
   inkscape:export-filename="/home/aviraldg/mozzo.png"
   inkscape:export-xdpi="101.483"
   inkscape:export-ydpi="101.483"
   sodipodi:docname="mozzo.svg">
  <defs
     id="defs4" />
  <sodipodi:namedview
     id="base"
     pagecolor="#ffffff"
     bordercolor="#666666"
     borderopacity="1.0"
     inkscape:pageopacity="0.0"
     inkscape:pageshadow="2"
     inkscape:zoom="0.175"
     inkscape:cx="-798.59087"
     inkscape:cy="66.776959"
     inkscape:document-units="px"
     inkscape:current-layer="g4956"
     showgrid="false"
     fit-margin-top="50"
     fit-margin-left="50"
     fit-margin-right="50"
     fit-margin-bottom="50"
     units="px"
     inkscape:window-width="1366"
     inkscape:window-height="706"
     inkscape:window-x="0"
     inkscape:window-y="0"
     inkscape:window-maximized="1" />
  <metadata
     id="metadata7">
    <rdf:RDF>
      <cc:Work
         rdf:about="">
        <dc:format>image/svg+xml</dc:format>
        <dc:type
           rdf:resource="http://purl.org/dc/dcmitype/StillImage" />
        <dc:title />
      </cc:Work>
    </rdf:RDF>
  </metadata>
  <g
     inkscape:label="Layer 1"
     inkscape:groupmode="layer"
     id="layer1"
     transform="translate(-98.019797,-207.56577)">
    <g
       transform="translate(1536,0)"
       id="g4956">
      <path
         sodipodi:nodetypes="cccccccccccccccccssssssssssssssssssscssscccssscssscsssscccccsccsscscsssscccccc"
         inkscape:connector-curvature="0"
         id="path4964"
         d="m -1382.7486,579.75396 -5.2316,-5.31143 0,-11.5766 0,-11.57661 4.6718,-4.76023 4.6718,-4.76023 161.5337,0 161.5338,0 4.7602,4.67182 4.7603,4.67181 0,11.74488 0,11.74489 -5.3115,5.23156 -5.3114,5.23156 -160.4229,0 -160.4227,0 z m 5.3943,-49.72116 c -2.0457,-2.04574 -2.1566,-3.18222 -0.5953,-6.0996 1.128,-2.1078 4.1011,-2.14736 161.4106,-2.14736 145.1132,0 160.325,0.16599 160.9352,1.75606 1.2462,3.24752 0.6884,5.92911 -1.4736,7.08623 -1.4514,0.77676 -53.4168,1.14922 -160.3399,1.14922 -142.3311,0 -158.3673,-0.17491 -159.937,-1.74455 z m -0.1321,-20.73634 c -1.0634,-3.50698 -4.6709,-7.18466 -7.8237,-7.97593 -2.5965,-0.65169 -2.6701,-0.97502 -2.6701,-11.72954 0,-10.75451 0.074,-11.07785 2.6701,-11.72954 5.6993,-1.43041 8.868,-7.66058 12.8768,-25.31798 10.2909,-45.32746 42.0044,-85.34808 84.1697,-106.21765 13.3318,-6.59853 19.9235,-9.01058 35.1688,-12.86901 15.3681,-3.88951 44.8417,-4.90663 61.7522,-2.13104 13.0295,2.13859 33.8775,8.70841 44.4163,13.99681 31.6349,15.87473 60.2584,44.45509 73.5944,73.4837 7.6892,16.73707 9.2805,21.29617 12.888,36.92461 3.1888,13.81442 5.7788,19.06075 10.5279,21.32544 l 3.8674,1.84421 0,10.89606 c 0,9.18151 -0.2756,10.89606 -1.7507,10.89606 -2.5343,0 -8.2408,6.09096 -8.2408,8.79595 l 0,2.30573 -160.3444,0 -160.3443,0 z m 138.5462,-41.07619 c -0.1527,-0.45794 -0.2775,-22.52806 -0.2775,-49.0447 l 0,-48.21205 -6.3835,0.57396 c -34.245,3.07912 -63.1981,27.30611 -75.4097,63.10023 -2.9392,8.6154 -5.9101,24.04156 -5.9101,30.68776 l 0,4.30799 44.1292,-0.29028 c 24.271,-0.15966 44.0042,-0.66496 43.8516,-1.12291 z m 131.4316,-7.77117 c -3.7722,-47.4367 -38.7271,-85.80352 -80.919,-88.81758 l -6.3834,-0.45602 0,49.21624 0,49.21624 44.0153,0 44.0154,0 z m -122.8278,-154.03572 0,-7.77118 -10.8896,0 c -12.5171,0 -14.2986,-0.81756 -15.789,-7.24582 -1.3287,-5.73113 -1.3677,-24.03635 -0.058,-27.47991 2.4684,-6.49288 1.567,-6.35046 40.1913,-6.35046 l 35.4989,0 2.7224,2.93752 c 2.6043,2.81011 2.7225,3.57408 2.7225,17.61297 0,13.16573 -0.2367,14.97635 -2.3009,17.60056 -2.2229,2.82595 -2.6935,2.92514 -13.8771,2.92514 l -11.5762,0 0,7.77118 0,7.77117 -13.322,0 -13.3221,0 z"
         style="fill:#ffa726" />
      <g
         style="font-style:normal;font-weight:normal;font-size:112.85728455px;line-height:125%;font-family:sans-serif;letter-spacing:0px;word-spacing:0px;fill:#ffa726;fill-opacity:1;stroke:none;stroke-width:1px;stroke-linecap:butt;stroke-linejoin:miter;stroke-opacity:1"
         id="text5007">
        <path
           d="m -865.50508,536.2138 q 0,-3.22371 0.49596,-9.17517 0.49595,-5.95146 1.48786,-13.63875 0.99191,-7.6873 2.2318,-16.11854 1.23989,-8.67921 2.47977,-17.11044 2.72776,-19.83819 6.69539,-42.65211 l -3.71966,0 q -2.97573,3.71966 -6.94336,11.15898 -3.71967,7.43932 -10.66303,21.82201 -6.94337,14.38269 -17.85438,37.44459 -10.66303,22.81392 -27.77347,57.28278 -4.95954,10.16708 -11.65493,13.88674 -6.44742,3.47168 -14.38269,3.47168 -10.16708,0 -16.36651,-4.21561 -6.19944,-4.4636 -9.67112,-11.65494 -3.22371,-7.43932 -4.46359,-16.61449 -0.99191,-9.42314 -0.99191,-19.34224 0,-10.16707 1.23988,-24.0538 1.23989,-13.88674 3.22371,-29.26134 1.98382,-15.3746 5.70348,-34.96481 3.96764,-19.8382 6.69539,-34.46886 2.97573,-14.63067 5.95146,-26.78156 2.97573,-12.1509 5.4555,-19.83819 2.47977,-7.93528 4.71157,-12.64685 2.2318,-4.71157 4.95955,-7.19135 2.97573,-2.72775 6.94337,-3.47168 3.96763,-0.99191 10.16707,-0.99191 9.42314,0 14.63067,0.74393 5.4555,0.49596 7.93527,2.97573 2.72776,2.2318 3.22371,6.69539 0.49595,4.46359 0.49595,12.15089 0,4.21562 -0.49595,9.67112 -0.24798,5.45551 -0.99191,11.65494 -0.49595,6.19944 -1.48786,12.64685 -1.73585,12.39887 -1.98382,12.89482 -3.47169,16.86247 -7.19135,37.69257 l 2.72775,2.97573 q 0.49596,-0.74393 6.44742,-13.1428 6.19943,-12.39888 13.1428,-24.54977 7.19134,-12.15089 15.3746,-25.29369 8.18325,-13.39078 15.62257,-23.55786 7.19135,-10.16707 15.12663,-16.86246 8.18325,-6.69539 19.34223,-6.69539 10.41505,0 17.85438,6.19943 7.43932,5.95146 7.43932,17.11045 0,9.67111 -1.23989,18.35032 -1.48786,11.15899 -2.97573,16.86247 -1.73584,6.44741 -3.96764,15.87055 -1.73584,8.18326 -6.19943,23.55785 -0.74393,2.47978 -1.48786,7.19135 -0.24798,1.48786 -0.24798,1.98382 l 2.72775,2.97573 q 0.49595,-0.74393 6.94337,-12.89483 6.44741,-12.39887 13.88673,-24.54976 7.6873,-12.15089 16.11853,-25.54167 8.67921,-13.39078 16.11853,-23.55786 7.19135,-9.91909 14.38269,-16.61448 7.19135,-6.94337 17.6064,-6.94337 11.65494,0 19.59021,6.19943 8.18326,5.95146 8.18326,17.11045 0,17.11044 -1.73584,32.48504 -1.73584,15.3746 -5.20753,33.9729 -3.47168,18.59831 -5.20752,33.97291 -1.73585,15.12662 -1.73585,32.23706 0,13.39078 3.47169,21.82201 3.47168,8.43123 8.43123,8.43123 5.20753,0 10.91101,-2.2318 5.70348,-2.23179 11.65493,-5.70348 5.95146,-3.47168 11.65494,-7.93527 5.70348,-4.71157 10.91101,-9.67112 12.15089,-11.40696 24.05381,-25.78965 l 4.21561,58.52267 q -10.911,8.67921 -21.82201,18.10235 -10.66303,9.17516 -22.81392,16.86246 -11.90292,7.43932 -26.28561,12.39887 -14.38269,4.71157 -32.48504,4.71157 -8.92718,0 -15.12662,-5.70348 -5.95146,-5.95146 -9.67112,-16.36651 -3.71966,-10.41505 -5.4555,-24.54976 -1.48786,-14.13471 -1.48786,-30.7492 0,-15.62258 0.99191,-32.98099 1.23988,-17.6064 3.2237,-35.46077 l -3.71966,0 -50.33941,128.20432 q -6.44742,10.41505 -14.38269,14.13471 -7.93528,3.47168 -18.35033,3.47168 -7.93528,0 -12.64685,-4.21561 -4.71157,-4.4636 -7.43932,-11.15899 -2.47977,-6.94337 -3.47168,-15.12662 -0.74394,-8.18325 -0.74394,-15.87055 z"
           style="font-style:normal;font-variant:normal;font-weight:normal;font-stretch:normal;font-size:507.85772705px;font-family:Pacifico;-inkscape-font-specification:Pacifico;fill:#ffa726"
           id="path4142" />
        <path
           d="m -495.77075,391.39499 q 7.19134,14.38269 10.66302,30.50122 3.71967,15.87056 3.71967,35.95673 0,14.63066 -3.22371,29.50931 -3.22371,14.87864 -9.42314,28.76538 -5.95146,13.88673 -14.87865,26.03762 -8.67921,12.1509 -20.08617,21.07808 -11.15898,8.92719 -24.54976,14.13472 -13.39078,5.20752 -28.5174,5.20752 -21.82201,0 -37.44459,-9.42314 -15.3746,-9.67112 -25.29369,-25.04572 -9.9191,-15.3746 -14.63067,-34.71683 -4.4636,-19.34224 -4.4636,-39.18044 0,-32.73301 8.18326,-56.29087 8.18325,-23.80583 23.30988,-41.16425 15.37459,-17.60639 37.44458,-27.52549 22.06999,-10.16707 49.59548,-10.16707 23.55786,0 44.13998,7.43932 20.58213,7.19135 38.4365,19.59022 18.10235,12.15089 33.47695,30.74919 15.62258,18.59831 29.01336,35.46077 l -4.71157,34.96482 q -6.69539,-8.92719 -18.10235,-19.34224 -11.40696,-10.41505 -24.30179,-23.0619 -12.64685,-12.64685 -25.04572,-21.32606 -12.39887,-8.92718 -21.32605,-14.87864 l -1.98382,2.72775 z m -76.62502,143.57892 q 8.43123,0 16.36651,-8.43123 7.93527,-8.67921 13.88673,-21.57404 5.95146,-13.1428 9.42314,-31.49313 3.71966,-18.5983 3.71966,-32.98099 0,-11.40696 -1.73584,-21.07808 -1.73584,-9.9191 -5.20752,-17.11044 -3.47169,-7.19135 -8.92719,-11.40696 -5.4555,-4.21562 -13.1428,-4.21562 -10.16708,0 -19.34224,8.67921 -9.17516,8.67921 -16.11853,22.31797 -6.94337,13.39078 -10.91101,29.75729 -3.96764,16.3665 -3.96764,36.94863 0,10.41505 1.98382,19.59021 1.98382,9.17517 6.19944,16.11854 4.21561,6.69538 11.15898,10.911 6.94337,3.96764 16.61449,3.96764 z"
           style="font-style:normal;font-variant:normal;font-weight:normal;font-stretch:normal;font-size:507.85772705px;font-family:Pacifico;-inkscape-font-specification:Pacifico;fill:#ffa726"
           id="path4144" />
        <path
           d="m -459.31804,536.2138 q 0,-5.45551 1.98382,-8.92719 1.98382,-3.71966 5.20753,-6.94337 3.2237,-3.2237 7.43932,-6.44741 4.21562,-3.47168 8.67921,-8.43123 l 79.60075,-108.61411 q -4.4636,-1.98381 -7.6873,-3.71966 -3.22371,-1.73584 -5.95146,-2.97573 -2.47978,-1.48786 -5.20753,-2.23179 -2.72775,-0.74393 -5.95145,-0.74393 -7.93528,0 -13.14281,0.24797 -5.20752,0.24798 -8.92718,1.73584 -3.47169,1.48787 -6.44742,4.4636 -2.72775,2.97573 -6.19943,8.43123 -7.6873,11.90292 -12.89483,17.6064 -5.20752,5.4555 -9.42314,5.4555 -3.96764,0 -5.70348,-3.47169 -1.48786,-3.71966 -1.48786,-9.67111 0,-2.47978 0.24797,-5.20753 0.24798,-2.97573 0.74394,-5.95146 3.71966,-21.57403 10.66303,-34.96481 6.94336,-13.39078 15.37459,-20.58213 8.67921,-7.43932 17.85438,-9.91909 9.42314,-2.72775 17.35842,-2.72775 5.95145,0 11.90291,2.97573 5.95146,2.72775 11.65494,6.19943 5.95146,3.47168 11.90291,6.44741 6.19944,2.72775 12.64685,2.97573 4.95955,0.24798 8.92719,0.24798 4.21562,0 7.6873,0 9.91909,0 15.87055,-0.24798 5.95146,-0.49595 8.92719,-0.99191 3.22371,-0.49595 4.46359,-0.74393 1.23989,-0.49595 1.98382,-0.49595 8.67921,0 12.39887,6.19943 3.96764,5.95146 3.96764,16.36651 0,8.43123 -1.48786,14.38269 -0.49596,1.98382 -4.95955,5.20752 -4.4636,2.97573 -14.87865,5.70348 -2.97573,5.45551 -9.91909,15.3746 -6.94337,9.9191 -16.11853,22.06999 -8.92719,12.1509 -20.08617,27.52549 -10.91101,15.3746 -19.8382,26.78156 -8.67921,11.15899 -15.3746,19.59022 -6.44741,8.18325 -8.6792,11.15898 l -1.23989,4.95955 q 0.24798,0 4.46359,1.73584 4.21562,1.73584 9.9191,3.96764 5.70348,1.98382 11.90291,3.71966 6.44742,1.73584 11.15899,1.73584 10.41505,0 18.84628,-2.97572 8.67921,-3.22371 15.87055,-7.93528 7.43933,-4.71157 13.63876,-9.9191 6.44741,-5.4555 12.15089,-10.16707 5.95146,-4.71157 11.65494,-7.6873 5.70348,-3.22371 11.90292,-3.22371 4.71157,0 8.43123,2.2318 3.96764,2.2318 6.44741,5.70348 2.72775,3.47168 3.96764,7.93528 1.48786,4.21561 1.48786,8.43123 0,7.19134 -5.4555,15.12662 -5.4555,7.6873 -14.63067,15.12662 -9.17516,7.43932 -21.32605,14.13471 -12.1509,6.69539 -25.54168,11.90292 -13.1428,4.95955 -27.02953,7.93528 -13.63876,2.97573 -25.78965,2.97573 -0.99191,0 -5.20753,-0.99191 -4.21561,-0.99191 -11.15898,-3.22371 -6.94337,-2.47977 -16.11853,-6.19944 -9.17517,-3.71966 -20.08617,-9.42314 -9.42314,2.97573 -16.36651,2.97573 -7.43932,0 -12.89483,-2.47977 -5.4555,-2.72775 -9.17516,-7.19135 -3.47168,-4.46359 -5.20753,-10.16707 -1.73584,-5.70348 -1.73584,-12.15089 z"
           style="font-style:normal;font-variant:normal;font-weight:normal;font-stretch:normal;font-size:507.85772705px;font-family:Pacifico;-inkscape-font-specification:Pacifico;fill:#ffa726"
           id="path4146" />
        <path
           d="m -299.12468,536.2138 q 0,-5.45551 1.98382,-8.92719 1.98382,-3.71966 5.20753,-6.94337 3.2237,-3.2237 7.43932,-6.44741 4.21561,-3.47168 8.67921,-8.43123 l 79.60074,-108.61411 q -4.46359,-1.98381 -7.68729,-3.71966 -3.22371,-1.73584 -5.95146,-2.97573 -2.47978,-1.48786 -5.20753,-2.23179 -2.72775,-0.74393 -5.95146,-0.74393 -7.93527,0 -13.1428,0.24797 -5.20752,0.24798 -8.92718,1.73584 -3.47169,1.48787 -6.44742,4.4636 -2.72775,2.97573 -6.19943,8.43123 -7.6873,11.90292 -12.89483,17.6064 -5.20752,5.4555 -9.42314,5.4555 -3.96764,0 -5.70348,-3.47169 -1.48786,-3.71966 -1.48786,-9.67111 0,-2.47978 0.24797,-5.20753 0.24798,-2.97573 0.74394,-5.95146 3.71966,-21.57403 10.66302,-34.96481 6.94337,-13.39078 15.3746,-20.58213 8.67921,-7.43932 17.85438,-9.91909 9.42314,-2.72775 17.35842,-2.72775 5.95145,0 11.90291,2.97573 5.95146,2.72775 11.65494,6.19943 5.95146,3.47168 11.90291,6.44741 6.19944,2.72775 12.64685,2.97573 4.95955,0.24798 8.92719,0.24798 4.21561,0 7.6873,0 9.91909,0 15.87055,-0.24798 5.95146,-0.49595 8.92719,-0.99191 3.2237,-0.49595 4.46359,-0.74393 1.23989,-0.49595 1.98382,-0.49595 8.67921,0 12.39887,6.19943 3.96764,5.95146 3.96764,16.36651 0,8.43123 -1.48786,14.38269 -0.49596,1.98382 -4.95955,5.20752 -4.4636,2.97573 -14.87865,5.70348 -2.97573,5.45551 -9.91909,15.3746 -6.94337,9.9191 -16.11853,22.06999 -8.92719,12.1509 -20.08617,27.52549 -10.91101,15.3746 -19.8382,26.78156 -8.67921,11.15899 -15.3746,19.59022 -6.44741,8.18325 -8.67921,11.15898 l -1.23988,4.95955 q 0.24798,0 4.46359,1.73584 4.21562,1.73584 9.9191,3.96764 5.70348,1.98382 11.90291,3.71966 6.44742,1.73584 11.15899,1.73584 10.41505,0 18.84628,-2.97572 8.67921,-3.22371 15.87055,-7.93528 7.43933,-4.71157 13.63876,-9.9191 6.44741,-5.4555 12.15089,-10.16707 5.95146,-4.71157 11.65494,-7.6873 5.70348,-3.22371 11.90292,-3.22371 4.711567,0 8.431228,2.2318 3.967639,2.2318 6.447413,5.70348 2.727751,3.47168 3.967638,7.93528 1.487865,4.21561 1.487865,8.43123 0,7.19134 -5.455503,15.12662 -5.455503,7.6873 -14.630671,15.12662 -9.17516,7.43932 -21.32605,14.13471 -12.1509,6.69539 -25.54168,11.90292 -13.1428,4.95955 -27.02953,7.93528 -13.63876,2.97573 -25.78965,2.97573 -0.99191,0 -5.20753,-0.99191 -4.21561,-0.99191 -11.15898,-3.22371 -6.94337,-2.47977 -16.11853,-6.19944 -9.17517,-3.71966 -20.08617,-9.42314 -9.42314,2.97573 -16.36651,2.97573 -7.43932,0 -12.89483,-2.47977 -5.4555,-2.72775 -9.17516,-7.19135 -3.47168,-4.46359 -5.20753,-10.16707 -1.73584,-5.70348 -1.73584,-12.15089 z"
           style="font-style:normal;font-variant:normal;font-weight:normal;font-stretch:normal;font-size:507.85772705px;font-family:Pacifico;-inkscape-font-specification:Pacifico;fill:#ffa726"
           id="path4148" />
        <path
           d="m 38.372587,391.39499 q 7.191345,14.38269 10.663029,30.50122 3.719661,15.87056 3.719661,35.95673 0,14.63066 -3.223707,29.50931 -3.223706,14.87864 -9.423141,28.76538 -5.951458,13.88673 -14.878644,26.03762 -8.67921,12.1509 -20.0861702,21.07808 -11.1589833,8.92719 -24.5497628,14.13472 -13.39078,5.20752 -28.517402,5.20752 -21.822012,0 -37.444588,-9.42314 -15.374602,-9.67112 -25.293692,-25.04572 -9.9191,-15.3746 -14.63067,-34.71683 -4.46359,-19.34224 -4.46359,-39.18044 0,-32.73301 8.18325,-56.29087 8.18325,-23.80583 23.309877,-41.16425 15.374599,-17.60639 37.444588,-27.52549 22.069989,-10.16707 49.595481,-10.16707 23.557854,0 44.139978,7.43932 20.582125,7.19135 38.436498,19.59022 18.102351,12.15089 33.476948,30.74919 15.62258,18.59831 29.01336,35.46077 l -4.71157,34.96482 Q 122.43693,458.34889 111.02997,447.93384 99.623006,437.51879 86.728181,424.87194 74.081334,412.22509 61.682463,403.54588 49.283593,394.6187 40.356406,388.66724 l -1.983819,2.72775 z m -76.625018,143.57892 q 8.431232,0 16.366509,-8.43123 7.935277,-8.67921 13.8867343,-21.57404 5.9514577,-13.1428 9.4231414,-31.49313 3.7196611,-18.5983 3.7196611,-32.98099 0,-11.40696 -1.7358419,-21.07808 -1.7358418,-9.9191 -5.2075255,-17.11044 -3.4716837,-7.19135 -8.9271864,-11.40696 -5.455503,-4.21562 -13.142803,-4.21562 -10.167073,0 -19.342237,8.67921 -9.175164,8.67921 -16.118532,22.31797 -6.943367,13.39078 -10.911006,29.75729 -3.967638,16.3665 -3.967638,36.94863 0,10.41505 1.983819,19.59021 1.983819,9.17517 6.199435,16.11854 4.215616,6.69538 11.158984,10.911 6.943367,3.96764 16.614486,3.96764 z"
           style="font-style:normal;font-variant:normal;font-weight:normal;font-stretch:normal;font-size:507.85772705px;font-family:Pacifico;-inkscape-font-specification:Pacifico;fill:#ffa726"
           id="path4150" />
      </g>
      <text
         sodipodi:linespacing="125%"
         id="text4137"
         y="1148.2999"
         x="-1011.8334"
         style="font-style:normal;font-weight:normal;font-size:112.85728455px;line-height:125%;font-family:sans-serif;letter-spacing:0px;word-spacing:0px;fill:#ffa726;fill-opacity:1;stroke:none;stroke-width:1px;stroke-linecap:butt;stroke-linejoin:miter;stroke-opacity:1"
         xml:space="preserve"><tspan
           style="font-style:normal;font-variant:normal;font-weight:normal;font-stretch:normal;font-size:507.85772705px;font-family:Pacifico;-inkscape-font-specification:Pacifico;fill:#ffa726"
           y="1148.2999"
           x="-1011.8334"
           id="tspan4139"
           sodipodi:role="line">mozzo</tspan></text>
    </g>
  </g>
</svg>
